<?xml version="1.0" encoding="utf-8"?>
<!-- Generator: Adobe Illustrator 19.1.0, SVG Export Plug-In . SVG Version: 6.00 Build 0)  -->
<svg version="1.1" id="Layer_1" xmlns="http://www.w3.org/2000/svg" xmlns:xlink="http://www.w3.org/1999/xlink" x="0px" y="0px"
	 viewBox="-102 59.9 36 36" style="enable-background:new -102 59.9 36 36;" xml:space="preserve">
<style type="text/css">
	.st0{fill:#FCFCFC;}
</style>
<path class="st0" d="M-84.1,61.6c-8.9,0-16.2,7.3-16.2,16.2S-93,94-84.1,94s16.2-7.3,16.2-16.2S-75.1,61.6-84.1,61.6z M-92.8,71.4
	h17.4c1,0,1.8,0.7,1.9,1.6l-10.6,4.5L-94.7,73C-94.6,72.1-93.8,71.4-92.8,71.4L-92.8,71.4z M-73.6,83.4c0,1-0.8,1.7-1.9,1.7h-17.4
	c-1,0-1.9-0.8-1.9-1.7v-9.6l10.6,4.5l0,0l10.6-4.5C-73.6,73.8-73.6,83.4-73.6,83.4z"/>
</svg>
