<?xml version="1.0" encoding="utf-8"?>
<!-- Generator: Adobe Illustrator 19.1.0, SVG Export Plug-In . SVG Version: 6.00 Build 0)  -->
<svg version="1.1" id="Layer_1" xmlns="http://www.w3.org/2000/svg" xmlns:xlink="http://www.w3.org/1999/xlink" x="0px" y="0px"
	 viewBox="-102 59.9 36 36" style="enable-background:new -102 59.9 36 36;" xml:space="preserve">
<style type="text/css">
	.st0{fill:#FCFAFA;}
	.st1{fill:#FFFFFF;}
</style>
<g>
	<path class="st0" d="M-84,61.7c-8.9,0-16.2,7.3-16.2,16.2c0,8.9,7.3,16.2,16.2,16.2s16.2-7.3,16.2-16.2S-75,61.7-84,61.7z
		 M-76.9,82.8c0,1.2-1,2.2-2.2,2.2h-9.7c-1.2,0-2.2-1-2.2-2.2v-5.7h2.9c-0.1,0.3-0.1,0.5-0.1,0.8c0,2.4,1.9,4.3,4.3,4.3
		s4.3-1.9,4.3-4.3c0-0.3,0-0.6-0.1-0.8h2.9v5.7H-76.9z M-86.6,77.9c0-1.5,1.2-2.6,2.6-2.6c1.5,0,2.6,1.2,2.6,2.6
		c0,1.5-1.2,2.6-2.6,2.6S-86.6,79.4-86.6,77.9z M-76.9,75.4h-3.6c-0.8-1.1-2-1.8-3.5-1.8c-1.4,0-2.7,0.7-3.5,1.8h-3.6v-2.3
		c0-1.2,1-2.2,2.2-2.2h9.7c1.2,0,2.2,1,2.2,2.2L-76.9,75.4L-76.9,75.4z"/>
	<path class="st1" d="M-78.5,72h-1.2c-0.2,0-0.4,0.2-0.4,0.4v1.2c0,0.2,0.2,0.4,0.4,0.4h1.2c0.2,0,0.4-0.2,0.4-0.4v-1.2
		C-78.1,72.2-78.2,72-78.5,72z"/>
</g>
</svg>
