<?xml version="1.0" encoding="utf-8"?>
<!-- Generator: Adobe Illustrator 19.1.0, SVG Export Plug-In . SVG Version: 6.00 Build 0)  -->
<svg version="1.1" id="Layer_1" xmlns="http://www.w3.org/2000/svg" xmlns:xlink="http://www.w3.org/1999/xlink" x="0px" y="0px"
	 viewBox="-102 59.9 36 36" style="enable-background:new -102 59.9 36 36;" xml:space="preserve">
<style type="text/css">
	.st0{fill:#FCFAFA;}
</style>
<path class="st0" d="M-84.1,61.6c-8.9,0-16.2,7.3-16.2,16.2S-93,94-84.1,94c8.9,0,16.2-7.3,16.2-16.2S-75.1,61.6-84.1,61.6z
	 M-77.8,74.7c0,0.1,0,0.3,0,0.4c0,4.4-3.4,9.6-9.6,9.6c-1.9,0-3.7-0.5-5.2-1.5c0.3,0,0.5,0,0.8,0c1.6,0,3-0.5,4.2-1.4
	c-1.5,0-2.7-1-3.1-2.3c0.2,0,0.4,0.1,0.6,0.1c0.3,0,0.6,0,0.9-0.1c-1.5-0.3-2.7-1.7-2.7-3.3v0c0.4,0.2,1,0.4,1.5,0.4
	c-0.9-0.6-1.5-1.6-1.5-2.8c0-0.6,0.2-1.2,0.5-1.7c1.7,2,4.1,3.4,6.9,3.5c-0.1-0.2-0.1-0.5-0.1-0.8c0-1.9,1.5-3.4,3.4-3.4
	c1,0,1.8,0.4,2.5,1.1c0.8-0.2,1.5-0.4,2.1-0.8c-0.3,0.8-0.8,1.4-1.5,1.9c0.7-0.1,1.3-0.3,1.9-0.5C-76.6,73.6-77.1,74.2-77.8,74.7
	L-77.8,74.7z"/>
</svg>
